<?xml version="1.0" encoding="UTF-8" standalone="no"?>
<!-- Generator: Adobe Illustrator 19.0.0, SVG Export Plug-In . SVG Version: 6.00 Build 0)  -->

<svg
   xmlns:dc="http://purl.org/dc/elements/1.1/"
   xmlns:cc="http://creativecommons.org/ns#"
   xmlns:rdf="http://www.w3.org/1999/02/22-rdf-syntax-ns#"
   xmlns:svg="http://www.w3.org/2000/svg"
   xmlns="http://www.w3.org/2000/svg"
   xmlns:sodipodi="http://sodipodi.sourceforge.net/DTD/sodipodi-0.dtd"
   xmlns:inkscape="http://www.inkscape.org/namespaces/inkscape"
   version="1.1"
   id="Layer_1"
   x="0px"
   y="0px"
   viewBox="0 0 469.335 469.335"
   style="enable-background:new 0 0 469.335 469.335;"
   xml:space="preserve"
   sodipodi:docname="paper-plane.svg"
   inkscape:version="0.92.5 (2060ec1f9f, 2020-04-08)"><metadata
   id="metadata937"><rdf:RDF><cc:Work
       rdf:about=""><dc:format>image/svg+xml</dc:format><dc:type
         rdf:resource="http://purl.org/dc/dcmitype/StillImage" /></cc:Work></rdf:RDF></metadata><defs
   id="defs935" /><sodipodi:namedview
   pagecolor="#ffffff"
   bordercolor="#666666"
   borderopacity="1"
   objecttolerance="10"
   gridtolerance="10"
   guidetolerance="10"
   inkscape:pageopacity="0"
   inkscape:pageshadow="2"
   inkscape:window-width="1920"
   inkscape:window-height="1016"
   id="namedview933"
   showgrid="false"
   inkscape:zoom="1.7855051"
   inkscape:cx="234.6675"
   inkscape:cy="234.6675"
   inkscape:window-x="0"
   inkscape:window-y="27"
   inkscape:window-maximized="1"
   inkscape:current-layer="Layer_1" />
<g
   id="g900"
   transform="matrix(-1,0,0,1,469.33489,0)">
	<g
   id="g898">
		<path
   d="m 464.761,1.918 c -3.385,-2.365 -7.813,-2.552 -11.385,-0.51 l -448,256 c -3.656,2.083 -5.74,6.125 -5.323,10.313 0.417,4.188 3.25,7.74 7.24,9.063 l 133.784,44.591 51.57,140.961 c 1.552,4.24 5.583,7 10.01,7 0.406,0 0.823,-0.021 1.229,-0.073 2.882,-0.331 5.307,-1.881 7.021,-4.031 l 0.104,0.083 75.891,-95.328 104.391,34.797 c 1.104,0.375 2.24,0.552 3.375,0.552 1.917,0 3.823,-0.521 5.5,-1.531 2.677,-1.604 4.51,-4.302 5.021,-7.385 l 64,-384 C 469.866,8.355 468.147,4.272 464.761,1.918 Z M 36.678,264.095 391.616,61.266 146.532,300.714 Z m 172.417,65.219 c -1.094,1.49 -1.792,3.229 -2.01,5.063 L 197.45,413.356 161.721,315.7 370.336,111.887 Z m 8.726,93.192 8.858,-72.595 38.673,12.891 z M 386.199,380.605 235.004,330.207 440.863,52.594 Z"
   id="path896"
   inkscape:connector-curvature="0" />
	</g>
</g>
<g
   id="g902">
</g>
<g
   id="g904">
</g>
<g
   id="g906">
</g>
<g
   id="g908">
</g>
<g
   id="g910">
</g>
<g
   id="g912">
</g>
<g
   id="g914">
</g>
<g
   id="g916">
</g>
<g
   id="g918">
</g>
<g
   id="g920">
</g>
<g
   id="g922">
</g>
<g
   id="g924">
</g>
<g
   id="g926">
</g>
<g
   id="g928">
</g>
<g
   id="g930">
</g>
</svg>